<svg width="688" height="400" viewBox="0 0 688 400" fill="none" xmlns="http://www.w3.org/2000/svg">
<g filter="url(#filter0_d)">
<path d="M65.9997 99L209 99C237.167 99 260 121.833 260 150L260 232C260 260.167 237.167 283 209 283L65.9997 283" stroke="white" stroke-width="6"/>
</g>
<g filter="url(#filter1_d)">
<path d="M148 194L510.5 194" stroke="white" stroke-width="6"/>
</g>
<g filter="url(#filter2_d)">
<path d="M378 353L378 94" stroke="white" stroke-width="6"/>
</g>
<g filter="url(#filter3_d)">
<path fill-rule="evenodd" clip-rule="evenodd" d="M67.306 50.0248L67.4564 56.56C69.5378 57.0906 71.5416 57.7762 73.4609 58.5949L77.0329 53.379C79.4691 54.5512 81.7714 55.9323 83.918 57.5014L81.5928 63.2417C83.2861 64.4884 84.8636 65.8597 86.321 67.3376L91.1731 64.1676C92.9394 66.1962 94.5144 68.3862 95.8829 70.7006L91.9817 74.6166C93.042 76.3769 93.961 78.2195 94.7234 80.128L99.7516 79.1296C100.606 81.6661 101.237 84.2998 101.624 86.9996L97.0531 88.9312C97.3272 90.9334 97.4387 92.9728 97.3788 95.0374L102 95.8815C101.905 97.5781 101.714 99.2873 101.418 101.008C101.25 101.992 101.047 102.964 100.817 103.921L96.0186 104.025C95.4618 106.022 94.7504 107.945 93.8969 109.787L97.9194 112.322C96.7761 114.815 95.4191 117.177 93.8775 119.388L89.0492 117.59C87.7496 119.215 86.3202 120.729 84.7833 122.129L87.8248 126.422C85.8552 128.29 83.7231 129.982 81.4616 131.476L77.1964 127.562C75.3617 128.579 73.4377 129.461 71.4486 130.193L72.7024 135.992C70.197 136.96 67.598 137.711 64.9343 138.225L62.2733 132.433C60.1901 132.697 58.0653 132.801 55.9137 132.744L54.6698 139C52.916 138.932 51.1471 138.761 49.3716 138.481C48.4661 138.338 47.5765 138.167 46.6975 137.976L46.5436 131.44C44.4628 130.906 42.4584 130.224 40.5391 129.405L36.9707 134.622C34.5309 133.449 32.2327 132.065 30.0856 130.499L32.4078 124.755C30.718 123.509 29.1364 122.14 27.6825 120.663L22.8274 123.829C21.0612 121.8 19.4891 119.614 18.1171 117.299L22.0183 113.383C20.958 111.623 20.0431 109.778 19.2771 107.869L14.252 108.871C13.3945 106.33 12.7673 103.697 12.3804 100.998L16.9475 99.0654C16.6728 97.0666 16.5613 95.0272 16.6212 92.9626L12 92.1185C12.0984 90.4225 12.2869 88.7093 12.5815 86.992C12.7503 86.0077 12.9534 85.0359 13.1836 84.0752L17.9855 83.9719C18.5388 81.9746 19.2537 80.0517 20.1073 78.21L16.0812 75.675C17.2239 73.1852 18.5809 70.8232 20.1267 68.6096L24.9514 70.4061C26.2504 68.7845 27.6803 67.2672 29.2202 65.8719L26.1752 61.578C28.1489 59.7073 30.2769 58.0178 32.5419 56.5242L36.8078 60.4355C38.6424 59.4178 40.5623 58.539 42.552 57.8037L41.3017 52.0048C43.803 51.0399 46.402 50.2892 49.0657 49.7753L51.7267 55.5667C53.8134 55.3034 55.9388 55.196 58.0869 55.2526L59.3302 49C61.0876 49.0681 62.857 49.2357 64.6325 49.5159C65.5345 49.6582 66.4241 49.8299 67.306 50.0248V50.0248Z" fill="white"/>
</g>
<path d="M51.0256 115L32 94L39.5 87.5L51.5 101L78 77L85 85L51.0256 115Z" fill="#1576D8"/>
<g filter="url(#filter4_d)">
<path fill-rule="evenodd" clip-rule="evenodd" d="M389.306 287.025L389.456 293.56C391.538 294.091 393.542 294.776 395.461 295.595L399.033 290.379C401.469 291.551 403.771 292.932 405.918 294.501L403.593 300.242C405.286 301.488 406.864 302.86 408.321 304.338L413.173 301.168C414.939 303.196 416.514 305.386 417.883 307.701L413.982 311.617C415.042 313.377 415.961 315.22 416.723 317.128L421.752 316.13C422.606 318.666 423.237 321.3 423.624 324L419.053 325.931C419.327 327.933 419.439 329.973 419.379 332.037L424 332.882C423.905 334.578 423.714 336.287 423.418 338.008C423.25 338.992 423.047 339.964 422.817 340.921L418.019 341.025C417.462 343.022 416.75 344.945 415.897 346.787L419.919 349.322C418.776 351.815 417.419 354.177 415.877 356.388L411.049 354.59C409.75 356.215 408.32 357.729 406.783 359.129L409.825 363.422C407.855 365.29 405.723 366.982 403.462 368.476L399.196 364.562C397.362 365.579 395.438 366.461 393.449 367.193L394.702 372.992C392.197 373.96 389.598 374.711 386.934 375.225L384.273 369.433C382.19 369.697 380.065 369.801 377.914 369.744L376.67 376C374.916 375.932 373.147 375.761 371.372 375.481C370.466 375.338 369.577 375.167 368.697 374.976L368.544 368.44C366.463 367.906 364.458 367.224 362.539 366.405L358.971 371.622C356.531 370.449 354.233 369.065 352.086 367.499L354.408 361.755C352.718 360.509 351.136 359.14 349.682 357.663L344.827 360.829C343.061 358.8 341.489 356.614 340.117 354.299L344.018 350.383C342.958 348.623 342.043 346.778 341.277 344.869L336.252 345.871C335.395 343.33 334.767 340.697 334.38 337.998L338.948 336.065C338.673 334.067 338.561 332.027 338.621 329.963L334 329.118C334.098 327.422 334.287 325.709 334.582 323.992C334.75 323.008 334.953 322.036 335.184 321.075L339.985 320.972C340.539 318.975 341.254 317.052 342.107 315.21L338.081 312.675C339.224 310.185 340.581 307.823 342.127 305.61L346.951 307.406C348.25 305.785 349.68 304.267 351.22 302.872L348.175 298.578C350.149 296.707 352.277 295.018 354.542 293.524L358.808 297.435C360.642 296.418 362.562 295.539 364.552 294.804L363.302 289.005C365.803 288.04 368.402 287.289 371.066 286.775L373.727 292.567C375.813 292.303 377.939 292.196 380.087 292.253L381.33 286C383.088 286.068 384.857 286.236 386.633 286.516C387.534 286.658 388.424 286.83 389.306 287.025V287.025Z" fill="white"/>
</g>
<path d="M373.026 352L354 331L361.5 324.5L373.5 338L400 314L407 322L373.026 352Z" fill="#EE5D5D"/>
<g filter="url(#filter5_d)">
<path fill-rule="evenodd" clip-rule="evenodd" d="M157.306 145.025L157.456 151.56C159.538 152.091 161.542 152.776 163.461 153.595L167.033 148.379C169.469 149.551 171.771 150.932 173.918 152.501L171.593 158.242C173.286 159.488 174.864 160.86 176.321 162.338L181.173 159.168C182.939 161.196 184.514 163.386 185.883 165.701L181.982 169.617C183.042 171.377 183.961 173.22 184.723 175.128L189.752 174.13C190.606 176.666 191.237 179.3 191.624 182L187.053 183.931C187.327 185.933 187.439 187.973 187.379 190.037L192 190.882C191.905 192.578 191.714 194.287 191.418 196.008C191.25 196.992 191.047 197.964 190.817 198.921L186.019 199.025C185.462 201.022 184.75 202.945 183.897 204.787L187.919 207.322C186.776 209.815 185.419 212.177 183.877 214.388L179.049 212.59C177.75 214.215 176.32 215.729 174.783 217.129L177.825 221.422C175.855 223.29 173.723 224.982 171.462 226.476L167.196 222.562C165.362 223.579 163.438 224.461 161.449 225.193L162.702 230.992C160.197 231.96 157.598 232.711 154.934 233.225L152.273 227.433C150.19 227.697 148.065 227.801 145.914 227.744L144.67 234C142.916 233.932 141.147 233.761 139.372 233.481C138.466 233.338 137.577 233.167 136.697 232.976L136.544 226.44C134.463 225.906 132.458 225.224 130.539 224.405L126.971 229.622C124.531 228.449 122.233 227.065 120.086 225.499L122.408 219.755C120.718 218.509 119.136 217.14 117.682 215.663L112.827 218.829C111.061 216.8 109.489 214.614 108.117 212.299L112.018 208.383C110.958 206.623 110.043 204.778 109.277 202.869L104.252 203.871C103.395 201.33 102.767 198.697 102.38 195.998L106.948 194.065C106.673 192.067 106.561 190.027 106.621 187.963L102 187.118C102.098 185.422 102.287 183.709 102.582 181.992C102.75 181.008 102.953 180.036 103.184 179.075L107.985 178.972C108.539 176.975 109.254 175.052 110.107 173.21L106.081 170.675C107.224 168.185 108.581 165.823 110.127 163.61L114.951 165.406C116.25 163.785 117.68 162.267 119.22 160.872L116.175 156.578C118.149 154.707 120.277 153.018 122.542 151.524L126.808 155.435C128.642 154.418 130.562 153.539 132.552 152.804L131.302 147.005C133.803 146.04 136.402 145.289 139.066 144.775L141.727 150.567C143.813 150.303 145.939 150.196 148.087 150.253L149.33 144C151.088 144.068 152.857 144.236 154.633 144.516C155.534 144.658 156.424 144.83 157.306 145.025V145.025Z" fill="white"/>
</g>
<path d="M141.026 210L122 189L129.5 182.5L141.5 196L168 172L175 180L141.026 210Z" fill="#05B317"/>
<g filter="url(#filter6_d)">
<circle cx="57" cy="287" r="41" fill="white"/>
</g>
<circle cx="56" cy="273" r="13" fill="#1576D8"/>
<rect x="37" y="287" width="39" height="27" rx="8" fill="#1576D8"/>
<g filter="url(#filter7_d)">
<circle cx="379" cy="195" r="41" fill="white"/>
</g>
<circle cx="376" cy="178" r="13" fill="#F59E49"/>
<rect x="359" y="195" width="39" height="27" rx="8" fill="#F59E49"/>
<g filter="url(#filter8_d)">
<rect x="227" y="194.234" width="47" height="47" transform="rotate(-45 227 194.234)" fill="#EEA886"/>
<rect x="227" y="194.234" width="47" height="47" transform="rotate(-45 227 194.234)" stroke="white" stroke-width="6"/>
</g>
<g filter="url(#filter9_d)">
<path d="M619 283L561 283C532.833 283 510 260.167 510 232L510 150C510 121.833 532.833 99 561 99L619 99" stroke="white" stroke-width="6"/>
</g>
<g filter="url(#filter10_d)">
<circle cx="635" cy="99" r="41" fill="white"/>
</g>
<circle cx="634" cy="85" r="13" fill="#EE5D5D"/>
<rect x="615" y="99" width="39" height="27" rx="8" fill="#EE5D5D"/>
<g filter="url(#filter11_d)">
<circle cx="379" cy="68" r="41" fill="white"/>
</g>
<circle cx="378" cy="54" r="13" fill="#05B217"/>
<rect x="359" y="68" width="39" height="27" rx="8" fill="#05B217"/>
<g filter="url(#filter12_d)">
<path fill-rule="evenodd" clip-rule="evenodd" d="M641.306 237.025L641.456 243.56C643.538 244.091 645.542 244.776 647.461 245.595L651.033 240.379C653.469 241.551 655.771 242.932 657.918 244.501L655.593 250.242C657.286 251.488 658.864 252.86 660.321 254.338L665.173 251.168C666.939 253.196 668.514 255.386 669.883 257.701L665.982 261.617C667.042 263.377 667.961 265.22 668.723 267.128L673.752 266.13C674.606 268.666 675.237 271.3 675.624 274L671.053 275.931C671.327 277.933 671.439 279.973 671.379 282.037L676 282.882C675.905 284.578 675.714 286.287 675.418 288.008C675.25 288.992 675.047 289.964 674.817 290.921L670.019 291.025C669.462 293.022 668.75 294.945 667.897 296.787L671.919 299.322C670.776 301.815 669.419 304.177 667.877 306.388L663.049 304.59C661.75 306.215 660.32 307.729 658.783 309.129L661.825 313.422C659.855 315.29 657.723 316.982 655.462 318.476L651.196 314.562C649.362 315.579 647.438 316.461 645.449 317.193L646.702 322.992C644.197 323.96 641.598 324.711 638.934 325.225L636.273 319.433C634.19 319.697 632.065 319.801 629.914 319.744L628.67 326C626.916 325.932 625.147 325.761 623.372 325.481C622.466 325.338 621.577 325.167 620.697 324.976L620.544 318.44C618.463 317.906 616.458 317.224 614.539 316.405L610.971 321.622C608.531 320.449 606.233 319.065 604.086 317.499L606.408 311.755C604.718 310.509 603.136 309.14 601.682 307.663L596.827 310.829C595.061 308.8 593.489 306.614 592.117 304.299L596.018 300.383C594.958 298.623 594.043 296.778 593.277 294.869L588.252 295.871C587.395 293.33 586.767 290.697 586.38 287.998L590.948 286.065C590.673 284.067 590.561 282.027 590.621 279.963L586 279.118C586.098 277.422 586.287 275.709 586.582 273.992C586.75 273.008 586.953 272.036 587.184 271.075L591.985 270.972C592.539 268.975 593.254 267.052 594.107 265.21L590.081 262.675C591.224 260.185 592.581 257.823 594.127 255.61L598.951 257.406C600.25 255.785 601.68 254.267 603.22 252.872L600.175 248.578C602.149 246.707 604.277 245.018 606.542 243.524L610.808 247.435C612.642 246.418 614.562 245.539 616.552 244.804L615.302 239.005C617.803 238.04 620.402 237.289 623.066 236.775L625.727 242.567C627.813 242.303 629.939 242.196 632.087 242.253L633.33 236C635.088 236.068 636.857 236.236 638.633 236.516C639.534 236.658 640.424 236.83 641.306 237.025V237.025Z" fill="white"/>
</g>
<path d="M625.026 302L606 281L613.5 274.5L625.5 288L652 264L659 272L625.026 302Z" fill="#8C6ECA"/>
<g filter="url(#filter13_d)">
<rect x="477" y="194.234" width="47" height="47" rx="23.5" transform="rotate(-45 477 194.234)" fill="#CD86EE"/>
<rect x="477" y="194.234" width="47" height="47" rx="23.5" transform="rotate(-45 477 194.234)" stroke="white" stroke-width="6"/>
</g>
<defs>
<filter id="filter0_d" x="51.9996" y="82" width="225" height="218" filterUnits="userSpaceOnUse" color-interpolation-filters="sRGB">
<feFlood flood-opacity="0" result="BackgroundImageFix"/>
<feColorMatrix in="SourceAlpha" type="matrix" values="0 0 0 0 0 0 0 0 0 0 0 0 0 0 0 0 0 0 127 0"/>
<feOffset/>
<feGaussianBlur stdDeviation="7"/>
<feColorMatrix type="matrix" values="0 0 0 0 0.286424 0 0 0 0 0.382317 0 0 0 0 0.470833 0 0 0 0.54 0"/>
<feBlend mode="normal" in2="BackgroundImageFix" result="effect1_dropShadow"/>
<feBlend mode="normal" in="SourceGraphic" in2="effect1_dropShadow" result="shape"/>
</filter>
<filter id="filter1_d" x="134" y="177" width="390.5" height="34" filterUnits="userSpaceOnUse" color-interpolation-filters="sRGB">
<feFlood flood-opacity="0" result="BackgroundImageFix"/>
<feColorMatrix in="SourceAlpha" type="matrix" values="0 0 0 0 0 0 0 0 0 0 0 0 0 0 0 0 0 0 127 0"/>
<feOffset/>
<feGaussianBlur stdDeviation="7"/>
<feColorMatrix type="matrix" values="0 0 0 0 0.286424 0 0 0 0 0.382317 0 0 0 0 0.470833 0 0 0 0.54 0"/>
<feBlend mode="normal" in2="BackgroundImageFix" result="effect1_dropShadow"/>
<feBlend mode="normal" in="SourceGraphic" in2="effect1_dropShadow" result="shape"/>
</filter>
<filter id="filter2_d" x="361" y="80" width="34" height="287" filterUnits="userSpaceOnUse" color-interpolation-filters="sRGB">
<feFlood flood-opacity="0" result="BackgroundImageFix"/>
<feColorMatrix in="SourceAlpha" type="matrix" values="0 0 0 0 0 0 0 0 0 0 0 0 0 0 0 0 0 0 127 0"/>
<feOffset/>
<feGaussianBlur stdDeviation="7"/>
<feColorMatrix type="matrix" values="0 0 0 0 0.286424 0 0 0 0 0.382317 0 0 0 0 0.470833 0 0 0 0.54 0"/>
<feBlend mode="normal" in2="BackgroundImageFix" result="effect1_dropShadow"/>
<feBlend mode="normal" in="SourceGraphic" in2="effect1_dropShadow" result="shape"/>
</filter>
<filter id="filter3_d" x="3" y="44" width="108" height="108" filterUnits="userSpaceOnUse" color-interpolation-filters="sRGB">
<feFlood flood-opacity="0" result="BackgroundImageFix"/>
<feColorMatrix in="SourceAlpha" type="matrix" values="0 0 0 0 0 0 0 0 0 0 0 0 0 0 0 0 0 0 127 0"/>
<feOffset dy="4"/>
<feGaussianBlur stdDeviation="4.5"/>
<feColorMatrix type="matrix" values="0 0 0 0 0.6625 0 0 0 0 0.6625 0 0 0 0 0.6625 0 0 0 1 0"/>
<feBlend mode="normal" in2="BackgroundImageFix" result="effect1_dropShadow"/>
<feBlend mode="normal" in="SourceGraphic" in2="effect1_dropShadow" result="shape"/>
</filter>
<filter id="filter4_d" x="325" y="281" width="108" height="108" filterUnits="userSpaceOnUse" color-interpolation-filters="sRGB">
<feFlood flood-opacity="0" result="BackgroundImageFix"/>
<feColorMatrix in="SourceAlpha" type="matrix" values="0 0 0 0 0 0 0 0 0 0 0 0 0 0 0 0 0 0 127 0"/>
<feOffset dy="4"/>
<feGaussianBlur stdDeviation="4.5"/>
<feColorMatrix type="matrix" values="0 0 0 0 0.6625 0 0 0 0 0.6625 0 0 0 0 0.6625 0 0 0 1 0"/>
<feBlend mode="normal" in2="BackgroundImageFix" result="effect1_dropShadow"/>
<feBlend mode="normal" in="SourceGraphic" in2="effect1_dropShadow" result="shape"/>
</filter>
<filter id="filter5_d" x="93" y="139" width="108" height="108" filterUnits="userSpaceOnUse" color-interpolation-filters="sRGB">
<feFlood flood-opacity="0" result="BackgroundImageFix"/>
<feColorMatrix in="SourceAlpha" type="matrix" values="0 0 0 0 0 0 0 0 0 0 0 0 0 0 0 0 0 0 127 0"/>
<feOffset dy="4"/>
<feGaussianBlur stdDeviation="4.5"/>
<feColorMatrix type="matrix" values="0 0 0 0 0.6625 0 0 0 0 0.6625 0 0 0 0 0.6625 0 0 0 1 0"/>
<feBlend mode="normal" in2="BackgroundImageFix" result="effect1_dropShadow"/>
<feBlend mode="normal" in="SourceGraphic" in2="effect1_dropShadow" result="shape"/>
</filter>
<filter id="filter6_d" x="7" y="241" width="100" height="100" filterUnits="userSpaceOnUse" color-interpolation-filters="sRGB">
<feFlood flood-opacity="0" result="BackgroundImageFix"/>
<feColorMatrix in="SourceAlpha" type="matrix" values="0 0 0 0 0 0 0 0 0 0 0 0 0 0 0 0 0 0 127 0"/>
<feOffset dy="4"/>
<feGaussianBlur stdDeviation="4.5"/>
<feColorMatrix type="matrix" values="0 0 0 0 0 0 0 0 0 0 0 0 0 0 0 0 0 0 0.21 0"/>
<feBlend mode="normal" in2="BackgroundImageFix" result="effect1_dropShadow"/>
<feBlend mode="normal" in="SourceGraphic" in2="effect1_dropShadow" result="shape"/>
</filter>
<filter id="filter7_d" x="329" y="149" width="100" height="100" filterUnits="userSpaceOnUse" color-interpolation-filters="sRGB">
<feFlood flood-opacity="0" result="BackgroundImageFix"/>
<feColorMatrix in="SourceAlpha" type="matrix" values="0 0 0 0 0 0 0 0 0 0 0 0 0 0 0 0 0 0 127 0"/>
<feOffset dy="4"/>
<feGaussianBlur stdDeviation="4.5"/>
<feColorMatrix type="matrix" values="0 0 0 0 0 0 0 0 0 0 0 0 0 0 0 0 0 0 0.21 0"/>
<feBlend mode="normal" in2="BackgroundImageFix" result="effect1_dropShadow"/>
<feBlend mode="normal" in="SourceGraphic" in2="effect1_dropShadow" result="shape"/>
</filter>
<filter id="filter8_d" x="190.757" y="124.757" width="138.953" height="138.953" filterUnits="userSpaceOnUse" color-interpolation-filters="sRGB">
<feFlood flood-opacity="0" result="BackgroundImageFix"/>
<feColorMatrix in="SourceAlpha" type="matrix" values="0 0 0 0 0 0 0 0 0 0 0 0 0 0 0 0 0 0 127 0"/>
<feOffset/>
<feGaussianBlur stdDeviation="16"/>
<feColorMatrix type="matrix" values="0 0 0 0 0 0 0 0 0 0 0 0 0 0 0 0 0 0 0.25 0"/>
<feBlend mode="normal" in2="BackgroundImageFix" result="effect1_dropShadow"/>
<feBlend mode="normal" in="SourceGraphic" in2="effect1_dropShadow" result="shape"/>
</filter>
<filter id="filter9_d" x="493" y="82" width="140" height="218" filterUnits="userSpaceOnUse" color-interpolation-filters="sRGB">
<feFlood flood-opacity="0" result="BackgroundImageFix"/>
<feColorMatrix in="SourceAlpha" type="matrix" values="0 0 0 0 0 0 0 0 0 0 0 0 0 0 0 0 0 0 127 0"/>
<feOffset/>
<feGaussianBlur stdDeviation="7"/>
<feColorMatrix type="matrix" values="0 0 0 0 0.286424 0 0 0 0 0.382317 0 0 0 0 0.470833 0 0 0 0.54 0"/>
<feBlend mode="normal" in2="BackgroundImageFix" result="effect1_dropShadow"/>
<feBlend mode="normal" in="SourceGraphic" in2="effect1_dropShadow" result="shape"/>
</filter>
<filter id="filter10_d" x="585" y="53" width="100" height="100" filterUnits="userSpaceOnUse" color-interpolation-filters="sRGB">
<feFlood flood-opacity="0" result="BackgroundImageFix"/>
<feColorMatrix in="SourceAlpha" type="matrix" values="0 0 0 0 0 0 0 0 0 0 0 0 0 0 0 0 0 0 127 0"/>
<feOffset dy="4"/>
<feGaussianBlur stdDeviation="4.5"/>
<feColorMatrix type="matrix" values="0 0 0 0 0 0 0 0 0 0 0 0 0 0 0 0 0 0 0.21 0"/>
<feBlend mode="normal" in2="BackgroundImageFix" result="effect1_dropShadow"/>
<feBlend mode="normal" in="SourceGraphic" in2="effect1_dropShadow" result="shape"/>
</filter>
<filter id="filter11_d" x="329" y="22" width="100" height="100" filterUnits="userSpaceOnUse" color-interpolation-filters="sRGB">
<feFlood flood-opacity="0" result="BackgroundImageFix"/>
<feColorMatrix in="SourceAlpha" type="matrix" values="0 0 0 0 0 0 0 0 0 0 0 0 0 0 0 0 0 0 127 0"/>
<feOffset dy="4"/>
<feGaussianBlur stdDeviation="4.5"/>
<feColorMatrix type="matrix" values="0 0 0 0 0 0 0 0 0 0 0 0 0 0 0 0 0 0 0.21 0"/>
<feBlend mode="normal" in2="BackgroundImageFix" result="effect1_dropShadow"/>
<feBlend mode="normal" in="SourceGraphic" in2="effect1_dropShadow" result="shape"/>
</filter>
<filter id="filter12_d" x="577" y="231" width="108" height="108" filterUnits="userSpaceOnUse" color-interpolation-filters="sRGB">
<feFlood flood-opacity="0" result="BackgroundImageFix"/>
<feColorMatrix in="SourceAlpha" type="matrix" values="0 0 0 0 0 0 0 0 0 0 0 0 0 0 0 0 0 0 127 0"/>
<feOffset dy="4"/>
<feGaussianBlur stdDeviation="4.5"/>
<feColorMatrix type="matrix" values="0 0 0 0 0.6625 0 0 0 0 0.6625 0 0 0 0 0.6625 0 0 0 1 0"/>
<feBlend mode="normal" in2="BackgroundImageFix" result="effect1_dropShadow"/>
<feBlend mode="normal" in="SourceGraphic" in2="effect1_dropShadow" result="shape"/>
</filter>
<filter id="filter13_d" x="451.734" y="135.734" width="117" height="117" filterUnits="userSpaceOnUse" color-interpolation-filters="sRGB">
<feFlood flood-opacity="0" result="BackgroundImageFix"/>
<feColorMatrix in="SourceAlpha" type="matrix" values="0 0 0 0 0 0 0 0 0 0 0 0 0 0 0 0 0 0 127 0"/>
<feOffset/>
<feGaussianBlur stdDeviation="16"/>
<feColorMatrix type="matrix" values="0 0 0 0 0 0 0 0 0 0 0 0 0 0 0 0 0 0 0.25 0"/>
<feBlend mode="normal" in2="BackgroundImageFix" result="effect1_dropShadow"/>
<feBlend mode="normal" in="SourceGraphic" in2="effect1_dropShadow" result="shape"/>
</filter>
</defs>
</svg>
