<?xml version="1.0" standalone="no"?>
<!DOCTYPE svg PUBLIC "-//W3C//DTD SVG 20010904//EN"
 "http://www.w3.org/TR/2001/REC-SVG-20010904/DTD/svg10.dtd">
<svg version="1.0" xmlns="http://www.w3.org/2000/svg"
 width="450.000000pt" height="450.000000pt" viewBox="0 0 450.000000 450.000000"
 preserveAspectRatio="xMidYMid meet">

<g transform="translate(0.000000,450.000000) scale(0.100000,-0.100000)"
fill="#000000" stroke="none">
<path d="M1927 4025 c-257 -42 -486 -131 -698 -274 -655 -437 -932 -1250 -683
-2000 98 -293 297 -581 542 -784 295 -244 642 -376 1032 -394 681 -30 1317
345 1625 957 285 566 232 1264 -137 1784 -89 126 -281 319 -408 409 -108 77
-336 193 -455 232 -179 59 -294 77 -520 81 -150 2 -235 -1 -298 -11z m538
-220 c504 -93 947 -452 1134 -920 89 -222 117 -389 108 -643 -6 -184 -29 -307
-87 -462 -35 -95 -119 -261 -155 -306 l-23 -29 -70 66 c-83 79 -133 114 -227
161 -156 78 -249 96 -532 105 l-212 6 65 23 c260 91 470 322 536 591 27 111
29 285 5 386 -58 236 -222 447 -428 551 -124 61 -211 86 -339 93 -395 22 -743
-225 -852 -604 -31 -106 -33 -343 -4 -443 78 -266 264 -471 516 -567 l85 -32
-135 -1 c-423 -1 -626 -67 -846 -273 -76 -70 -65 -74 -133 43 -137 234 -196
465 -196 765 1 267 40 437 156 670 224 454 674 771 1180 834 104 13 347 6 454
-14z m-1306 -347 c-2 -2 -31 -28 -64 -58 l-60 -55 55 58 c30 31 59 57 64 57 5
0 7 -1 5 -2z m-165 -173 c-4 -8 -11 -15 -16 -15 -6 0 -5 6 2 15 7 8 14 15 16
15 2 0 1 -7 -2 -15z m-40 -50 c-4 -8 -11 -15 -16 -15 -6 0 -5 6 2 15 7 8 14
15 16 15 2 0 1 -7 -2 -15z m-99 -146 c-13 -24 -25 -40 -25 -35 0 11 43 87 47
82 2 -2 -8 -23 -22 -47z m1905 -1072 c0 -2 -10 -12 -22 -23 l-23 -19 19 23
c18 21 26 27 26 19z m882 -629 c-23 -35 -42 -59 -42 -54 0 13 74 126 79 121 2
-3 -15 -33 -37 -67z m-82 -118 c-11 -16 -26 -33 -33 -37 -12 -7 0 11 32 50 23
28 24 20 1 -13z m-71 -89 c-19 -22 -38 -40 -42 -40 -5 -1 7 17 25 39 18 22 37
40 42 40 4 0 -7 -18 -25 -39z m-69 -75 c0 -2 -8 -10 -17 -17 -16 -13 -17 -12
-4 4 13 16 21 21 21 13z"/>
</g>
</svg>
